<svg width="42" height="42" viewBox="0 0 42 42" fill="none" xmlns="http://www.w3.org/2000/svg">
    <rect x="3.7291" width="34.5907" height="36.1445" rx="16" fill="#208AEC"/>
    <rect x="0.500092" y="10.4552" width="6.41229" height="20.1881" rx="3.20614" fill="white" stroke="#D1D3D4"/>
    <rect x="35.088" y="10.4552" width="6.41228" height="20.1881" rx="3.20614" fill="white" stroke="#D1D3D4"/>
    <path d="M32.8762 32.6045C35.4715 32.3556 37.8165 34.377 37.8165 36.9431C37.8165 38.6569 36.7492 40.1004 35.1338 40.4083C32.4636 40.9174 27.9039 41.5001 21.0212 41.5001C14.1384 41.5001 9.57875 40.9174 6.90848 40.4083C5.29315 40.1004 4.22582 38.6569 4.22582 36.9431C4.22582 34.377 6.57083 32.3556 9.16616 32.6045C12.1384 32.8895 16.1894 33.1524 21.0212 33.1524C25.8529 33.1524 29.9039 32.8895 32.8762 32.6045Z" fill="white" stroke="#D1D3D4"/>
</svg>
