<svg width="42" height="42" viewBox="0 0 42 42" fill="none" xmlns="http://www.w3.org/2000/svg">
    <rect x="3.72903" width="34.5907" height="36.1445" rx="16" fill="url(#paint0_linear_670_30628)"/>
    <rect x="0.500031" y="10.4551" width="6.41229" height="20.1881" rx="3.20614" fill="white" stroke="#D1D3D4"/>
    <rect x="35.0879" y="10.4551" width="6.41228" height="20.1881" rx="3.20614" fill="white" stroke="#D1D3D4"/>
    <path d="M32.8761 32.6045C35.4714 32.3556 37.8164 34.377 37.8164 36.9431C37.8164 38.6569 36.7491 40.1004 35.1338 40.4083C32.4635 40.9174 27.9038 41.5001 21.0211 41.5001C14.1384 41.5001 9.57869 40.9174 6.90842 40.4083C5.29309 40.1004 4.22576 38.6569 4.22576 36.9431C4.22576 34.377 6.57076 32.3556 9.1661 32.6045C12.1384 32.8895 16.1894 33.1524 21.0211 33.1524C25.8528 33.1524 29.9038 32.8895 32.8761 32.6045Z" fill="white" stroke="#D1D3D4"/>
    <defs>
        <linearGradient id="paint0_linear_670_30628" x1="-8.81856" y1="18.0722" x2="27.4899" y2="-1.75734" gradientUnits="userSpaceOnUse">
            <stop stop-color="#F9A51A"/>
            <stop offset="0.267357" stop-color="#FBB612"/>
            <stop offset="0.881951" stop-color="#FFDD00"/>
        </linearGradient>
    </defs>
</svg>
